<svg xmlns="http://www.w3.org/2000/svg" viewBox="0 0 114.58 114.76"><defs><style>.cls-1{fill:#da4726;}</style></defs><g id="Layer_2" data-name="Layer 2"><g id="Layer_1-2" data-name="Layer 1"><path class="cls-1" d="M38.42,38.44a8.91,8.91,0,1,1,0-12.6A8.87,8.87,0,0,1,38.42,38.44Z"/><path class="cls-1" d="M76.32,76.24a8.91,8.91,0,1,1,0,12.6A8.87,8.87,0,0,1,76.32,76.24Z"/><path class="cls-1" d="M76.32,25.74a8.91,8.91,0,1,1,0,12.6A8.87,8.87,0,0,1,76.32,25.74Z"/><path class="cls-1" d="M25.83,76.24a8.91,8.91,0,1,1,0,12.6A8.87,8.87,0,0,1,25.83,76.24Z"/><path class="cls-1" d="M69.93,65.44h-.6a6,6,0,0,1-4.6-2l-.5-.5a8.92,8.92,0,0,0,0-11.5l.6-.6c.7-.7,2.7-2.2,4.6-1.9h.7a4.5,4.5,0,1,0-4.5-4.5v.5h0a6,6,0,0,1-1.91,4.6l-.5.5a8.92,8.92,0,0,0-11.5.1,2.56,2.56,0,0,1-.59-.6c-.71-.7-2.21-2.7-1.91-4.6v-.7a4.45,4.45,0,1,0-4.4,4.5h.5a6,6,0,0,1,4.6,1.9l.6.6a9,9,0,0,0,0,11.4l-.6.6c-.7.7-2.7,2.2-4.6,1.9h-.69a4.48,4.48,0,0,0-4.5,4.5,4.4,4.4,0,0,0,4.5,4.4,4.46,4.46,0,0,0,4.5-4.4v-.5h0a6,6,0,0,1,1.9-4.6l.6-.6a8.92,8.92,0,0,0,11.5,0,4,4,0,0,0,.5.7c.69.7,2.19,2.7,1.9,4.6v.7a4.4,4.4,0,0,0,4.5,4.4,4.46,4.46,0,0,0,4.5-4.4A4.63,4.63,0,0,0,69.93,65.44Z"/><path class="cls-1" d="M112,51a8.87,8.87,0,0,0-12.6,0,8.68,8.68,0,0,0-2,3.1c-1.1,2-3.9,2.2-4.9,2.2h-.1a6.62,6.62,0,0,0-1.9-3.7,6.72,6.72,0,1,0,0,9.5,6.64,6.64,0,0,0,1.9-3.8h.2c1,0,3.8.2,4.69,2.1a7.45,7.45,0,0,0,2.1,3.2,8.87,8.87,0,0,0,12.6,0A9,9,0,0,0,112,51ZM51.13,2.64a8.87,8.87,0,0,0,0,12.6,10.29,10.29,0,0,0,3.2,2.1c1.89,1.1,2.1,3.8,2.1,4.8v.2a6,6,0,0,0-3.7,1.9,6.72,6.72,0,1,0,9.5,0,7,7,0,0,0-3.7-1.9V22c0-1.1.3-4.1,2.4-4.9a2.19,2.19,0,0,0,.5-.3,9.12,9.12,0,0,0,2.3-1.7,8.87,8.87,0,0,0,0-12.6A9,9,0,0,0,51.13,2.64Zm9.3,94.7c-1.9-1.1-2.1-3.8-2.1-4.8v-.2a6,6,0,0,0,3.7-1.9,6.72,6.72,0,1,0-9.5,0,7,7,0,0,0,3.69,1.9v.3c0,1.1-.3,4.1-2.4,4.9a2.19,2.19,0,0,0-.5.3,9.12,9.12,0,0,0-2.3,1.7,8.91,8.91,0,1,0,12.61,0A6.92,6.92,0,0,0,60.43,97.34Zm-36.3-44.8a6.46,6.46,0,0,0-1.9,3.8H22c-1,0-3.79-.2-4.69-2.1a7.45,7.45,0,0,0-2.1-3.2,8.91,8.91,0,1,0,0,12.6,8.68,8.68,0,0,0,2-3.1c1-2,3.9-2.2,4.9-2.2h.1a6.56,6.56,0,0,0,1.9,3.7,6.72,6.72,0,1,0,0-9.5Z"/></g></g></svg>