<?xml version="1.0" encoding="utf-8"?>
<!-- Generator: Adobe Illustrator 21.1.0, SVG Export Plug-In . SVG Version: 6.00 Build 0)  -->
<svg version="1.1" id="Layer_1" xmlns="http://www.w3.org/2000/svg" xmlns:xlink="http://www.w3.org/1999/xlink" x="0px" y="0px"
	 viewBox="0 0 431 429" style="enable-background:new 0 0 431 429;" xml:space="preserve">
<style type="text/css">
	.st0{fill:#3196C2;}
</style>
<g>
	<g>
		<path class="st0" d="M245.2,255.1c-1.2-3.4-2-7-3.6-10.1c-3.6-6.8-5-7-11.6-3.7c-10.5,5.3-21,5-30.9-1.2c-3.3-2-4.9-1.4-7.1,1.1
			c-4.1,4.7-6.1,10.2-6.1,16.4c0,8.5-4.8,14.3-12.1,15.1c-9.2,1-15.2-3.4-16.9-12.3c-1.7-8.6,6.8-17.8,15.9-16.7
			c7.2,0.9,12.6-2.2,17.3-7c0.9-0.9,0.9-3.7,0.2-5c-6.7-11.4-6.7-22.8,0.1-34.1c1.5-2.4,1.1-3.9-0.8-5.5c-5.1-4.5-10.8-6.8-17.8-6.4
			c-6.5,0.3-11.2-3-13.7-9c-2.4-5.7-1.6-11.1,2.6-15.8c4.3-4.8,10.9-6.3,16.9-3.9c5.8,2.4,9.8,8.3,9.2,14.7
			c-0.7,6.7,1.9,12,5.8,16.9c1.7,2.1,3.1,2.7,5.8,1c11.5-7.4,23.1-7.3,34.9-0.3c1.1,0.7,3.9,0.2,4.9-0.7c4.6-4.5,6.7-10.1,6.5-16.6
			c-0.2-9.4,6-15.9,14.7-16c8.6-0.1,14.9,6,15,14.6c0.2,8.4-6.1,15.3-14.5,15.1c-7.1-0.2-13.1,1.4-18.3,6.3
			c-1.9,1.8-2.2,3.1-0.7,5.5c7.3,11.4,7.1,22.9,0,34.3c-1.5,2.4-1,3.8,0.8,5.5c4.6,4.3,9.9,6.8,16.2,6.4c6.5-0.4,11.5,2.1,14.5,7.7
			c2.7,5,2.6,10.3-0.7,15.2c-3.8,5.7-9.4,7.1-15.8,6C248.8,271.5,244.4,264.6,245.2,255.1z"/>
		<path class="st0" d="M216,15.8c13.8,0,25.7,9.4,29.3,22.8c3.6,13.4-2.4,28.1-14.9,34.4c-6.8,3.4-10.7,8.1-11.5,15.6
			c-0.3,3,0.3,4.7,3.7,5.8c10.7,3.3,16.6,12.7,15.7,23.8c-0.8,10.2-8.8,18.8-19,20.4c-10.3,1.7-20.5-3.9-24.8-13.7
			c-5.3-12,0.8-26.2,13.6-30.4c3.8-1.2,4.7-3.1,4.2-6.5c-0.9-6-3.2-10.9-9.3-13.7c-13.8-6.3-20.7-20.7-17.3-35.1
			C188.9,25.2,201.2,15.7,216,15.8z"/>
		<path class="st0" d="M413.8,214.7c-0.1,13.8-9.5,26.2-22.2,29.1c-15.3,3.5-29.2-2.6-35.5-16.3c-2.9-6.4-7.8-9.1-14.3-10
			c-3.4-0.5-5.1,0.5-6.1,4c-2.5,8.2-8.1,13.4-16.5,15c-8.5,1.6-16.3-0.3-22.1-7.3c-6.2-7.6-7.3-15.9-3.1-24.7
			c3.9-8.3,12-13,22.1-12.4c9.4,0.6,16.2,5.5,19.2,14.3c1.8,5.4,4.7,5.4,9,4.4c5.8-1.3,9.5-4.6,12.2-10
			c6.3-12.9,20.5-19.2,34.4-15.7C404.7,188.5,413.8,200.3,413.8,214.7z"/>
		<path class="st0" d="M16.9,214.4c0.1-14.4,9.7-26.5,23.6-29.6c13.9-3.1,28,3.7,34.1,16.6c2,4.3,4.7,7.5,9.3,9.1
			c7.7,2.6,8.7,2.3,11.8-5c4.4-10.3,15.9-15.8,26.9-12.9c10.9,2.9,17.8,13.8,16.2,25.4c-1.6,11.2-10.7,19-22.1,18.9
			c-10.7-0.1-17.8-4.8-21.5-15.3c-1.3-3.7-3.2-4.5-6.7-3.8c-6.4,1.2-11.2,4.1-14.2,10.4c-6.5,13.4-20.1,19.1-35.3,15.5
			C26.2,240.7,16.9,228.2,16.9,214.4z"/>
		<path class="st0" d="M158.2,126.8c-0.1,17.2-13.6,30.8-30.7,30.7c-16.7-0.1-30.4-13.9-30.4-30.6c0-16.9,14-30.9,30.8-30.7
			C144.9,96.4,158.3,109.9,158.2,126.8z"/>
		<path class="st0" d="M272.8,126.6c0.1-16.9,13.7-30.5,30.6-30.4c16.9,0,30.6,14.1,30.5,31.2c-0.2,16.5-13.9,30.1-30.5,30.1
			C286.2,157.5,272.7,143.9,272.8,126.6z"/>
	</g>
</g>
<path class="st0" d="M216,412.8c13.8,0,25.7-9.4,29.3-22.8c3.6-13.4-2.4-28.1-14.9-34.4c-6.8-3.4-10.7-8.1-11.5-15.6
	c-0.3-3,0.3-4.7,3.7-5.8c10.7-3.3,16.6-12.7,15.7-23.8c-0.8-10.2-8.8-18.8-19-20.4c-10.3-1.7-20.5,3.9-24.8,13.7
	c-5.3,12,0.8,26.2,13.6,30.4c3.8,1.2,4.7,3.1,4.2,6.5c-0.9,6-3.2,10.9-9.3,13.7c-13.8,6.3-20.7,20.7-17.3,35.1
	C189,403.4,201.3,412.9,216,412.8z"/>
<path class="st0" d="M158.3,301.7c-0.1-17.2-13.6-30.8-30.7-30.7c-16.7,0.1-30.4,13.9-30.4,30.6c0,16.9,14,30.9,30.8,30.7
	C145,332.2,158.3,318.7,158.3,301.7z"/>
<path class="st0" d="M272.8,302c0.1,16.9,13.7,30.5,30.6,30.4c16.9,0,30.6-14.1,30.5-31.2c-0.2-16.5-13.9-30.1-30.5-30.1
	C286.2,271.1,272.7,284.7,272.8,302z"/>
</svg>
